<svg version="1.1" id="Layer_1" xmlns="http://www.w3.org/2000/svg" xmlns:xlink="http://www.w3.org/1999/xlink" x="0px" y="0px"
	 viewBox="0 0 1177 203" style="enable-background:new 0 0 1177 203;" xml:space="preserve">
<style type="text/css">
	.st0{clip-path:url(#SVGID_2_);fill:#FF3A96;}
	.st1{opacity:0.15;clip-path:url(#SVGID_4_);fill:#FFFFFF;enable-background:new    ;}
	.st2{opacity:0.3;clip-path:url(#SVGID_6_);fill:#FFFFFF;enable-background:new    ;}
	.st3{opacity:0.1;clip-path:url(#SVGID_8_);fill:#FFFFFF;enable-background:new    ;}
</style>
<g>
	<g>
		<defs>
			<rect id="SVGID_1_" width="1177" height="203"/>
		</defs>
		<clipPath id="SVGID_2_">
			<use xlink:href="#SVGID_1_"  style="overflow:visible;"/>
		</clipPath>
		<rect class="st0" width="1177" height="203"/>
	</g>
	<g>
		<defs>
			<rect id="SVGID_3_" width="1177" height="203"/>
		</defs>
		<clipPath id="SVGID_4_">
			<use xlink:href="#SVGID_3_"  style="overflow:visible;"/>
		</clipPath>
		<path class="st1" d="M875.9,61.1c-80.3,0-175.7,36.2-170.3,108.6c4.6,62,68.5,118.5,131.9,118.5c15.1,0,30.2-3.2,44.5-10.4
			c74-37,207.8-204.9,8.5-216.3C885.7,61.3,880.8,61.1,875.9,61.1"/>
	</g>
	<g>
		<defs>
			<rect id="SVGID_5_" width="1177" height="203"/>
		</defs>
		<clipPath id="SVGID_6_">
			<use xlink:href="#SVGID_5_"  style="overflow:visible;"/>
		</clipPath>
		<path class="st2" d="M934.9-13.5c-42.6,0-93.2,19.2-90.4,57.6c2.4,32.9,36.4,62.9,70,62.9c8,0,16.1-1.7,23.6-5.5
			c39.3-19.6,110.3-108.7,4.5-114.8C940.1-13.4,937.5-13.5,934.9-13.5"/>
	</g>
	<g>
		<defs>
			<rect id="SVGID_7_" width="1177" height="203"/>
		</defs>
		<clipPath id="SVGID_8_">
			<use xlink:href="#SVGID_7_"  style="overflow:visible;"/>
		</clipPath>
		<path class="st3" d="M1238.1-101.8c-170.5,0-372.9,76.8-361.5,230.4c9.8,131.6,145.4,251.5,280,251.5c32.1,0,64.2-6.8,94.4-22
			c157-78.5,440.9-434.8,18.1-459C1259-101.5,1248.6-101.8,1238.1-101.8"/>
	</g>
</g>
</svg>